<svg id="Capa_1" data-name="Capa 1" xmlns="http://www.w3.org/2000/svg" viewBox="0 0 556.72 96.7"><path d="M469.28,45.42c-.39,2.17-.9,4.32-1.13,6.5-1,9.11-1.73,18.23-2.78,27.33-.63,5.54-1.6,11-2.53,16.54a9.38,9.38,0,0,1-1.26,3c-1.63,2.8-4.81,3.09-6.55.38A18.76,18.76,0,0,1,452.46,93c-1.09-5.29-1.8-10.65-2.72-16-.54-3.08-1.17-6.15-1.8-9.21-.07-.36-.39-.66-1.06-1-.39,2-.92,4-1.14,6-.7,6.54-1.22,13.09-1.94,19.63-1.1,10-2.24,20-3.51,30a7.62,7.62,0,0,1-3,5.35c-1.45,1.07-2.88,1.1-3.86-.38A17.13,17.13,0,0,1,431,122a80.87,80.87,0,0,1-1.67-10.73c-.82-9.3-1.43-18.63-2.19-27.94-.45-5.51-.94-11-1.55-16.52-.35-3.14-1-6.24-1.5-9.36l-.69,0c-.58,1.69-1.27,3.34-1.71,5.06q-2.2,8.55-4.2,17.15a2.28,2.28,0,0,0,.93,1.78c1,.69,2.26,1,3.29,1.65,4.22,2.69,5,6.66,3.72,11.31-1.74,6.23-6.23,10.65-10.84,14.82-2.2,2-4.08,1.25-4.9-1.61a5.74,5.74,0,0,1-.27-2.17c.69-6.22,1.38-12.45,2.22-18.65.21-1.57-.14-2.19-1.71-2.18-4.74,0-9.48.09-14.21,0A3.68,3.68,0,0,1,393,83.12c-.94-1.52.25-3.15,2.24-3.17,5.1,0,10.21,0,15.31.11,1.35,0,2.09,0,2.42-1.64,1.22-5.88,2.45-11.77,4-17.57a39.75,39.75,0,0,1,3.72-8.94c1.71-3,4.77-2.92,6.51.14a16.75,16.75,0,0,1,1.85,5.35c.68,4,1.23,8,1.58,12,1.06,12.13,1.94,24.27,3,36.4.39,4.44,1,8.85,1.58,13.28l.58,0c.34-1.8.82-3.58,1-5.39,1.26-12.66,2.37-25.34,3.73-38a119.05,119.05,0,0,1,2.26-12.66c.46-2.07,1.52-4,4-4.29,1.74-.23,3.94,1.51,4.72,4a81.9,81.9,0,0,1,2.56,10c1.07,5.91,1.85,11.89,2.81,17.83a7.85,7.85,0,0,0,1.34,3.12,34.51,34.51,0,0,0,1-3.94c.62-4.51,1.23-9,1.67-13.54.71-7.22,1.13-14.47,2-21.67.55-4.81,1.58-9.56,2.5-14.32a6.47,6.47,0,0,1,1.31-2.6c2-2.54,5.25-2.22,6.52.73a26,26,0,0,1,1.65,5.82c.66,3.87,1.26,7.76,1.61,11.67.75,8.21,1.27,16.43,2,24.64.54,6.12,1.23,12.23,1.87,18.34,0,.37.3.72.95,1.14.46-1.64.93-3.28,1.39-4.92,1.18-4.24,2.8-8.25,6-11.43,2.93-2.92,6.63-3.73,10.59-4,.85-.06,1.64-.81,2.5-1.1a16.77,16.77,0,0,1,3.65-.89c1.42-.12,2.72,0,3.65-1.5a3.24,3.24,0,0,1,2.44-1c5.91-.08,11.81-.07,17.72,0A3.57,3.57,0,0,1,533,77.82c.16.49,1.18,1,1.82,1,2.09.13,4.19.07,6.28,0,1.45,0,2.1.52,2.05,2.08-.16,4.93.91,4.52-4.68,4.59-.8,0-1.6,0-2.4-.07-1.6,0-3.18-.22-3.57,2.06-.1.56-1.08,1.08-1.76,1.39a5.06,5.06,0,0,1-2,.28q-8,0-16.06,0c-1.74,0-3.35-.17-4.53-1.88-.39-.57-1.76-.55-2.7-.64-1.55-.15-3.26.28-4.17-1.59-.11-.23-.64-.32-1-.37-4.74-.66-8.5,1.46-10.74,5.73s-2.93,9.2-4.19,13.86a19.3,19.3,0,0,1-1.67,4.46c-1.29,2.27-3.58,2.23-5.24.12a14.05,14.05,0,0,1-2.58-7.57c-1.31-12.9-2.5-25.81-3.78-38.71-.5-5.08-1.11-10.14-1.71-15.2a13.14,13.14,0,0,0-.55-2ZM416.13,86.2c-.59,5.12-1.19,10.28-1.79,15.44l.66.19a30.49,30.49,0,0,0,5.86-9.09A4.93,4.93,0,0,0,416.13,86.2Z" transform="translate(-1 -35.98)" fill="#1d1b1a"/><path d="M548.53,78.4c1.53.55,3.05,1.11,4.59,1.62a1.65,1.65,0,0,0,.88,0,3.13,3.13,0,0,1,3.66,1.73c.41,1-1.24,3.1-2.55,2.92a8.34,8.34,0,0,0-3.11.55c-2.23.48-4.62.18-7,.2-.12,0-.33-.06-.34-.1a44.86,44.86,0,0,1-.49-5.28c0-.38,1.1-.91,1.77-1.08a9.92,9.92,0,0,1,2.38,0Z" transform="translate(-1 -35.98)" fill="#1d1b1a"/><text transform="translate(49.97 70.24)" font-size="73.6" fill="#1d1b1a" font-family="JuventusFans-Bold, Juventus Fans" font-weight="700" letter-spacing="0.1em">LJ MUSICA<tspan x="305.86" y="0" letter-spacing="0.08em">L</tspan></text><text transform="translate(90.08 93.23)" font-size="13.66" fill="#1d1b1a" font-family="Phenomena-Bold, Phenomena" font-weight="700" letter-spacing="0.8em">T<tspan x="15.79" y="0" letter-spacing="0.8em">IENDA DE M</tspan><tspan x="177.36" y="0" letter-spacing="0.8em">Ú</tspan><tspan x="194.43" y="0" letter-spacing="0.8em">S</tspan><tspan x="210.88" y="0" letter-spacing="0.8em">I</tspan><tspan x="224.68" y="0" letter-spacing="0.8em">C</tspan><tspan x="241.2" y="0" letter-spacing="0.8em">A</tspan></text><rect x="378.81" y="44.08" width="32.48" height="4.48" rx="1.77" fill="#1d1b1a"/><rect x="9.06" y="44.08" width="32.48" height="4.48" rx="1.77" fill="#1d1b1a"/><rect y="44.08" width="4.48" height="4.48" rx="1.6" fill="#1d1b1a"/></svg>